HIERARCHY
ROOT Hips
{
	OFFSET -72.282547 91.867981 178.233994
	CHANNELS 6 Xposition Yposition Zposition Zrotation Yrotation Xrotation 
	JOINT LeftUpLeg
	{
		OFFSET 0.103457 1.857823 10.548503
		CHANNELS 3 Xrotation Yrotation Zrotation
		JOINT LeftLeg
		{
			OFFSET 43.499996 -0.000034 0.000002
			CHANNELS 3 Xrotation Yrotation Zrotation
			JOINT LeftFoot
			{
				OFFSET 42.372192 0.000011 -0.000001
				CHANNELS 3 Xrotation Yrotation Zrotation
				JOINT LeftToe
				{
					OFFSET 17.300007 0.000003 0.000000
					CHANNELS 3 Xrotation Yrotation Zrotation
					End Site
					{
						OFFSET 0.000000 0.000000 0.000000
					}
				}
			}
		}
	}
	JOINT RightUpLeg
	{
		OFFSET 0.103457 1.857824 -10.548503
		CHANNELS 3 Xrotation Yrotation Zrotation
		JOINT RightLeg
		{
			OFFSET 43.500046 -0.000027 0.000015
			CHANNELS 3 Xrotation Yrotation Zrotation
			JOINT RightFoot
			{
				OFFSET 42.372261 0.000004 0.000017
				CHANNELS 3 Xrotation Yrotation Zrotation
				JOINT RightToe
				{
					OFFSET 17.299995 -0.000004 -0.000002
					CHANNELS 3 Xrotation Yrotation Zrotation
					End Site
					{
						OFFSET 0.000000 0.000000 0.000000
					}
				}
			}
		}
	}
	JOINT Spine
	{
		OFFSET 6.901969 -2.603723 -0.000001
		CHANNELS 3 Xrotation Yrotation Zrotation
		JOINT Spine1
		{
			OFFSET 12.588095 -0.000003 0.000006
			CHANNELS 3 Xrotation Yrotation Zrotation
			JOINT Spine2
			{
				OFFSET 12.343204 0.000006 -0.000008
				CHANNELS 3 Xrotation Yrotation Zrotation
				JOINT Neck
				{
					OFFSET 25.832893 -0.000006 0.000003
					CHANNELS 3 Xrotation Yrotation Zrotation
					JOINT Head
					{
						OFFSET 11.766609 -0.000008 0.000000
						CHANNELS 3 Xrotation Yrotation Zrotation
						End Site
						{
							OFFSET 0.000000 0.000000 0.000000
						}
					}
				}
				JOINT LeftShoulder
				{
					OFFSET 19.745899 -1.480379 6.000108
					CHANNELS 3 Xrotation Yrotation Zrotation
					JOINT LeftArm
					{
						OFFSET 11.284125 -0.000006 -0.000023
						CHANNELS 3 Xrotation Yrotation Zrotation
						JOINT LeftForeArm
						{
							OFFSET 33.000050 -0.000002 0.000027
							CHANNELS 3 Xrotation Yrotation Zrotation
							JOINT LeftHand
							{
								OFFSET 25.200008 0.000014 0.000008
								CHANNELS 3 Xrotation Yrotation Zrotation
								End Site
								{
									OFFSET 0.000000 0.000000 0.000000
								}
							}
						}
					}
				}
				JOINT RightShoulder
				{
					OFFSET 19.746098 -1.480379 -6.000071
					CHANNELS 3 Xrotation Yrotation Zrotation
					JOINT RightArm
					{
						OFFSET 11.284139 -0.000009 -0.000009
						CHANNELS 3 Xrotation Yrotation Zrotation
						JOINT RightForeArm
						{
							OFFSET 33.000092 0.000008 0.000008
							CHANNELS 3 Xrotation Yrotation Zrotation
							JOINT RightHand
							{
								OFFSET 25.199780 0.000137 0.000422
								CHANNELS 3 Xrotation Yrotation Zrotation
								End Site
								{
									OFFSET 0.000000 0.000000 0.000000
								}
							}
						}
					}
				}
			}
		}
	}
}
MOTION
Frames: 14
Frame Time: 0.033333
-231.857895 89.766602 -264.530304 92.743976 -4.974254 -118.990119 157.265953 1.976594 -171.778151 -39.234714 -1.147444 -8.994978 76.032716 4.979209 -5.604334 21.454557 0.003116 0.000019 -175.502558 -4.987100 -168.473801 -22.341414 2.892715 -2.111227 91.602747 0.112541 -8.603589 21.454553 -0.003098 0.000000 8.888515 -0.138489 1.908882 7.757531 -0.404348 3.804155 7.440196 -0.381522 3.806524 -16.479812 2.036481 3.808627 -2.444872 -2.154351 4.953305 148.337707 -71.408596 31.244280 16.144414 59.762127 39.517180 -37.991356 -14.289912 1.387879 13.839940 -5.608574 15.784304 178.238595 74.311195 -0.439689 -21.646121 -50.633784 -9.923787 -56.968870 17.930143 -2.186291 5.933287 16.606628 -6.823688 
-229.982697 89.562973 -266.978302 92.565162 -4.417651 -119.867306 157.037797 2.490201 -172.622704 -29.203433 -1.540039 -9.249926 73.599906 4.604317 -7.368668 21.454557 0.003101 0.000016 -173.561828 -5.181395 -168.954565 -21.437923 3.078313 -2.472524 92.402351 0.445051 -8.317304 21.454555 -0.003093 0.000001 8.790192 -0.185743 2.021659 7.558819 -0.502828 4.026865 7.241564 -0.478652 4.029815 -16.447615 1.644356 4.171801 -2.501488 -1.805606 5.057488 148.540208 -71.443000 31.034880 17.283584 59.977872 41.289330 -37.690702 -14.126748 1.369789 14.010792 -4.371748 16.796774 177.447181 74.653606 -1.242685 -22.783161 -50.057247 -8.929723 -57.590789 17.759662 -2.197351 6.125386 16.331390 -7.228823 
-228.013107 89.327103 -269.438507 92.475803 -3.908868 -120.810405 157.327028 2.425603 -175.152647 -19.772322 -3.136788 -9.683531 71.991314 4.460113 -8.808824 21.454558 0.003104 0.000017 -171.421615 -5.464996 -169.351303 -20.328388 3.196143 -2.935411 92.641319 0.722389 -8.631333 21.454555 -0.003096 -0.000000 8.705937 -0.224478 2.149286 7.388218 -0.585355 4.279884 7.071069 -0.559661 4.283330 -16.613991 1.561478 4.441392 -2.526986 -1.728109 5.262678 148.573321 -71.446723 31.000801 17.984615 59.930040 42.467367 -37.852857 -13.928760 1.360923 14.161934 -3.070932 17.370090 176.278194 74.829879 -2.435982 -23.434282 -49.868768 -8.471010 -57.576903 17.877634 -2.204881 6.150877 15.663852 -7.129602 
-225.994293 88.790207 -272.042999 92.725781 -3.536544 -121.587011 157.735815 2.468793 -179.106507 -13.804533 -3.732285 -9.306892 72.576743 2.320834 -15.328030 21.454558 0.003110 0.000017 -169.145591 -5.812700 -169.531470 -19.868349 3.378879 -3.512062 93.305917 1.106213 -8.927313 21.454548 -0.003081 0.000001 8.680815 -0.194136 2.231360 7.338639 -0.528995 4.445932 7.021551 -0.502317 4.449031 -16.866705 1.256962 4.799798 -2.748051 -1.705932 5.476515 149.166687 -71.424217 30.395503 18.282333 59.683648 43.099132 -38.560195 -14.069880 1.387843 14.587568 -1.196961 17.810690 174.923289 75.086708 -3.816393 -23.857156 -50.275742 -8.219912 -56.962760 17.979761 -2.189438 6.622553 15.659378 -7.470787 
-224.027603 88.165466 -274.621490 92.926274 -3.388354 -122.147101 157.466050 2.862505 176.884032 -13.838842 -3.410804 -7.781508 73.568166 0.738253 -17.256784 21.454567 0.003122 0.000014 -167.267289 -6.108000 -169.389511 -20.436691 3.101424 -4.005987 94.120198 1.492071 -8.960465 21.454551 -0.003096 0.000000 8.701521 -0.186615 2.262583 7.380144 -0.516778 4.508673 7.063094 -0.489702 4.511696 -17.236028 0.885514 5.186377 -2.779770 -1.405685 5.618000 149.434908 -71.412203 30.122009 17.980640 59.395530 42.798754 -38.892538 -13.724178 1.373747 14.288710 -1.767568 18.528766 173.996405 75.302583 -4.758718 -23.995850 -51.062744 -8.327751 -55.754947 18.015353 -2.148347 6.816437 15.452477 -7.627345 
-222.090897 87.770348 -277.243408 92.587463 -3.697264 -122.987487 157.717852 4.042891 174.939313 -16.187886 -2.629516 -7.765394 70.411266 2.434920 -10.440766 21.454558 0.003109 0.000018 -165.642879 -5.571702 -168.408505 -21.589804 2.385927 -4.940645 94.251344 2.134309 -9.035275 21.454553 -0.003099 0.000001 8.741879 -0.366157 2.306721 7.453587 -0.879740 4.585194 7.136539 -0.852207 4.590405 -17.567624 0.665730 5.558247 -2.900553 -1.184617 5.827349 149.703704 -71.612505 29.833406 16.973654 59.226189 42.364607 -39.114140 -14.009263 1.398008 13.883013 -2.569963 18.460176 173.349190 75.217820 -5.423700 -23.595894 -52.035393 -9.824023 -54.168731 18.339201 -2.114189 6.971252 15.473466 -6.922487 
-220.209595 87.834579 -280.091003 91.529535 -4.604546 -124.578703 159.468975 5.748303 176.769462 -16.327511 -3.269779 -10.212144 69.257408 6.529886 -3.147549 21.454558 0.003109 0.000016 -164.123722 -3.798293 -167.903330 -22.880895 1.493233 -5.808090 93.078867 2.668917 -8.985752 21.454553 -0.003087 -0.000001 8.746266 -0.795980 2.460320 7.443447 -1.748158 4.864944 7.126417 -1.718931 4.875373 -17.300652 0.563772 5.911677 -3.497801 -0.780058 6.039453 149.639596 -71.788410 29.887108 15.829675 59.020163 40.721000 -39.382956 -14.196762 1.417168 13.661724 -3.201192 18.332883 172.715035 74.687101 -6.090093 -22.127986 -53.142000 -12.801333 -51.869266 18.582209 -2.051493 7.639245 15.304849 -5.562470 
-218.384995 88.207817 -283.068604 89.812104 -5.758146 -126.336793 161.391346 8.522398 -179.814156 -15.736754 -3.298695 -13.620023 68.575536 10.682673 2.057153 21.454558 0.003104 0.000016 -164.227978 -1.317005 -165.610531 -26.297159 -1.000068 -7.274116 90.625054 3.662134 -8.319112 21.454557 -0.003087 -0.000000 8.674878 -1.425621 2.540803 7.273880 -3.007668 4.988760 6.956619 -2.977655 5.006782 -17.527401 0.851059 6.285647 -3.075710 -0.543189 6.451364 150.704914 -72.099914 28.776909 13.998386 58.627161 37.859926 -39.143189 -14.118242 1.405853 13.735317 -3.965154 17.617291 172.368539 73.986016 -6.468384 -20.690736 -54.523436 -16.237919 -48.379152 18.320174 -1.919461 8.184399 15.302359 -4.123540 
-216.471298 88.591003 -286.019409 88.492423 -6.998151 -127.424719 163.124424 10.092494 -179.333857 -16.989768 -3.851199 -14.560724 70.930449 11.246911 2.067540 21.454560 0.003096 0.000016 -166.341170 1.341598 -163.755110 -33.399116 -3.458189 -8.372032 85.472960 4.397417 -7.113375 21.454557 -0.003103 0.000001 8.663006 -1.978590 2.436557 7.232643 -4.105111 4.747833 6.914857 -4.076535 4.772491 -17.301965 0.654338 6.876561 -3.214659 0.328580 6.730006 151.817306 -71.717813 27.664202 11.838572 57.615180 34.730655 -38.008746 -14.306320 1.389377 13.661688 -5.401691 16.256011 171.803518 73.849522 -7.052502 -19.860706 -56.590064 -19.558645 -43.416490 17.752860 -1.731715 8.517647 15.079159 -2.072231 
-214.662796 88.783577 -288.791809 87.688004 -7.794773 -128.868717 164.350225 10.692402 178.186467 -18.961829 -4.201161 -13.996385 73.743558 10.831342 2.470699 21.454558 0.003106 0.000018 -170.848453 4.756902 -162.113543 -43.997855 -6.090860 -10.333168 79.003145 6.999862 -1.632851 21.454551 -0.003102 0.000002 8.641946 -2.342134 2.399133 7.179194 -4.828080 4.652598 6.861015 -4.800060 4.681646 -17.141567 0.485557 7.498644 -2.976046 1.059952 7.080083 150.436802 -71.879613 29.065706 9.676495 57.624537 31.586848 -36.931168 -14.954141 1.404906 14.299857 -5.441690 14.879577 171.357439 74.594292 -7.483573 -19.311359 -58.919138 -22.412502 -38.544994 16.346308 -1.507970 10.247869 13.737587 -1.083251 
-212.878494 89.058357 -291.665009 87.710346 -8.520489 -130.820007 166.504835 10.873790 175.770602 -20.026852 -4.279594 -13.581457 76.189558 10.522040 2.912578 21.454557 0.003115 0.000018 -176.330882 8.127194 -163.317090 -55.822439 -7.447865 -10.629861 72.214552 9.912899 6.158072 21.454560 -0.003096 0.000004 8.725671 -2.462376 2.361500 7.344471 -5.069167 4.566494 7.026136 -5.041669 4.596998 -17.247720 0.345119 8.440220 -2.584913 1.118035 7.898213 149.604202 -71.862196 29.918189 7.143171 57.564206 27.847451 -36.604141 -15.217122 1.414041 14.851039 -5.688681 14.330029 168.523306 75.812504 -10.337292 -18.207143 -60.448431 -27.294826 -35.043433 15.499070 -1.368441 12.367856 10.186983 -0.550818 
-210.980804 89.486610 -294.574188 88.187789 -9.294217 -132.581690 169.724545 11.452194 176.205220 -19.620494 -4.183014 -14.614855 77.993903 10.989913 2.307589 21.454558 0.003098 0.000018 178.225863 10.526598 -165.308883 -66.288721 -8.010492 -8.589876 67.385390 11.244114 12.446923 21.454543 -0.003092 -0.000000 8.879611 -2.476934 2.203742 7.659426 -5.093861 4.242925 7.340916 -5.068309 4.273596 -16.961904 0.558454 9.427346 -2.773496 0.747930 9.016507 149.969781 -71.217112 29.588007 4.642711 56.405150 24.289997 -37.171587 -15.333747 1.435403 14.912545 -5.907780 14.880177 167.811532 76.343606 -11.043090 -17.169200 -60.440412 -31.815171 -33.075826 14.768110 -1.277550 12.748092 4.808465 -3.251422 
-209.005493 89.831039 -297.202209 88.769155 -9.478310 -133.813296 172.393251 11.493394 177.127829 -19.514286 -4.306548 -15.529029 79.821477 11.365363 1.575187 21.454558 0.003108 0.000019 172.863687 11.196200 -167.279092 -74.127012 -7.798436 -4.126276 69.201851 8.403744 14.351725 21.454545 -0.003090 0.000002 8.942136 -2.350397 1.921227 7.800645 -4.824569 3.682933 7.482031 -4.802406 3.712012 -15.819888 0.661230 10.422829 -3.904584 0.424348 10.119584 150.628402 -70.699404 28.948592 2.277778 55.024998 22.023482 -37.845330 -15.529895 1.464815 14.698830 -6.441678 14.339308 168.995737 75.638819 -9.861507 -14.820730 -59.149063 -35.206832 -32.357646 14.492352 -1.244529 12.688109 0.229508 -6.451064 
-206.897598 90.189697 -299.552795 89.492103 -9.083668 -134.559904 174.778804 10.846095 176.739314 -19.435841 -4.115919 -15.394266 81.414728 11.078901 1.023504 21.454558 0.003105 0.000016 167.508873 10.928495 -168.702804 -78.979479 -7.238694 -0.332511 72.245670 4.254482 11.576192 21.454550 -0.003090 -0.000001 8.931882 -2.103776 1.578237 7.799653 -4.308830 3.013298 7.481067 -4.290694 3.039269 -14.675418 1.461108 11.116596 -4.468786 -0.455995 11.350664 149.701504 -71.196499 29.864002 0.519751 54.841631 19.891405 -39.039684 -15.824806 1.514339 14.175854 -7.584853 13.618043 171.772113 74.757281 -7.053274 -12.254402 -58.013421 -36.874303 -31.970374 14.476202 -1.235428 13.061177 -1.086819 -7.169278 
